<svg width="567" height="540" viewBox="0 0 567 540" fill="none" xmlns="http://www.w3.org/2000/svg">
<g filter="url(#filter0_f_382_146)">
<rect x="151" y="233.533" width="215.066" height="207.465" rx="66" transform="rotate(-30 151 233.533)" fill="#3E2FF2" fill-opacity="0.55"/>
</g>
<rect y="314.811" width="245.547" height="116.966" rx="11" fill="white"/>
<circle cx="58.4835" cy="373.295" r="48.8582" stroke="#848486"/>
<circle cx="58.4835" cy="373.295" r="44.3809"/>
<path d="M133.215 343.656V361.838H130.694L121.452 348.503H121.283V361.838H118.54V343.656H121.079L130.33 357.008H130.499V343.656H133.215ZM140.972 362.14C140.108 362.14 139.327 361.98 138.629 361.66C137.93 361.335 137.377 360.864 136.968 360.249C136.566 359.633 136.365 358.879 136.365 357.985C136.365 357.216 136.513 356.582 136.809 356.085C137.105 355.588 137.504 355.194 138.007 354.904C138.51 354.614 139.072 354.395 139.694 354.247C140.315 354.099 140.949 353.987 141.594 353.91C142.411 353.815 143.073 353.738 143.582 353.679C144.091 353.614 144.461 353.511 144.692 353.369C144.923 353.227 145.038 352.996 145.038 352.676V352.614C145.038 351.839 144.819 351.238 144.381 350.812C143.949 350.386 143.304 350.173 142.446 350.173C141.552 350.173 140.848 350.371 140.333 350.767C139.824 351.158 139.472 351.593 139.277 352.072L136.782 351.504C137.078 350.676 137.51 350.007 138.078 349.498C138.652 348.983 139.312 348.61 140.058 348.379C140.804 348.142 141.588 348.024 142.411 348.024C142.955 348.024 143.532 348.089 144.142 348.219C144.757 348.344 145.331 348.575 145.864 348.912C146.403 349.249 146.844 349.732 147.187 350.359C147.53 350.98 147.702 351.788 147.702 352.783V361.838H145.109V359.974H145.003C144.831 360.317 144.574 360.654 144.23 360.986C143.887 361.317 143.446 361.592 142.908 361.811C142.369 362.03 141.724 362.14 140.972 362.14ZM141.549 360.009C142.283 360.009 142.911 359.864 143.431 359.574C143.958 359.284 144.358 358.905 144.63 358.438C144.908 357.964 145.047 357.458 145.047 356.92V355.162C144.953 355.257 144.769 355.345 144.497 355.428C144.23 355.505 143.926 355.573 143.582 355.632C143.239 355.686 142.905 355.736 142.579 355.783C142.254 355.825 141.981 355.86 141.762 355.89C141.248 355.955 140.777 356.064 140.351 356.218C139.931 356.372 139.593 356.594 139.339 356.884C139.09 357.168 138.966 357.547 138.966 358.021C138.966 358.678 139.209 359.175 139.694 359.512C140.179 359.843 140.798 360.009 141.549 360.009ZM156.342 362.104C155.241 362.104 154.259 361.823 153.395 361.261C152.536 360.693 151.862 359.885 151.37 358.837C150.885 357.784 150.643 356.52 150.643 355.046C150.643 353.573 150.888 352.312 151.379 351.265C151.877 350.217 152.557 349.415 153.421 348.859C154.285 348.302 155.265 348.024 156.36 348.024C157.206 348.024 157.887 348.166 158.402 348.45C158.923 348.728 159.325 349.054 159.609 349.427C159.899 349.8 160.124 350.128 160.284 350.412H160.444V343.656H163.098V361.838H160.506V359.716H160.284C160.124 360.006 159.893 360.338 159.591 360.711C159.295 361.083 158.887 361.409 158.366 361.687C157.845 361.965 157.171 362.104 156.342 362.104ZM156.928 359.84C157.692 359.84 158.337 359.639 158.863 359.237C159.396 358.828 159.799 358.263 160.071 357.541C160.349 356.819 160.488 355.979 160.488 355.02C160.488 354.073 160.352 353.244 160.08 352.534C159.807 351.824 159.408 351.27 158.881 350.874C158.354 350.477 157.703 350.279 156.928 350.279C156.129 350.279 155.463 350.486 154.931 350.901C154.398 351.315 153.995 351.88 153.723 352.596C153.457 353.312 153.324 354.12 153.324 355.02C153.324 355.931 153.46 356.751 153.732 357.479C154.004 358.207 154.407 358.784 154.939 359.21C155.478 359.63 156.141 359.84 156.928 359.84ZM166.887 361.838V348.202H169.541V361.838H166.887ZM168.227 346.098C167.766 346.098 167.369 345.944 167.038 345.636C166.712 345.322 166.549 344.949 166.549 344.517C166.549 344.079 166.712 343.707 167.038 343.399C167.369 343.085 167.766 342.928 168.227 342.928C168.689 342.928 169.083 343.085 169.408 343.399C169.739 343.707 169.905 344.079 169.905 344.517C169.905 344.949 169.739 345.322 169.408 345.636C169.083 345.944 168.689 346.098 168.227 346.098ZM177.081 362.14C176.217 362.14 175.435 361.98 174.737 361.66C174.039 361.335 173.485 360.864 173.077 360.249C172.674 359.633 172.473 358.879 172.473 357.985C172.473 357.216 172.621 356.582 172.917 356.085C173.213 355.588 173.612 355.194 174.116 354.904C174.619 354.614 175.181 354.395 175.802 354.247C176.424 354.099 177.057 353.987 177.702 353.91C178.519 353.815 179.182 353.738 179.691 353.679C180.2 353.614 180.57 353.511 180.801 353.369C181.031 353.227 181.147 352.996 181.147 352.676V352.614C181.147 351.839 180.928 351.238 180.49 350.812C180.058 350.386 179.413 350.173 178.554 350.173C177.661 350.173 176.956 350.371 176.442 350.767C175.933 351.158 175.58 351.593 175.385 352.072L172.89 351.504C173.186 350.676 173.618 350.007 174.187 349.498C174.761 348.983 175.421 348.61 176.166 348.379C176.912 348.142 177.696 348.024 178.519 348.024C179.063 348.024 179.64 348.089 180.25 348.219C180.866 348.344 181.44 348.575 181.972 348.912C182.511 349.249 182.952 349.732 183.295 350.359C183.638 350.98 183.81 351.788 183.81 352.783V361.838H181.218V359.974H181.111C180.94 360.317 180.682 360.654 180.339 360.986C179.996 361.317 179.555 361.592 179.016 361.811C178.478 362.03 177.832 362.14 177.081 362.14ZM177.658 360.009C178.392 360.009 179.019 359.864 179.54 359.574C180.067 359.284 180.466 358.905 180.738 358.438C181.017 357.964 181.156 357.458 181.156 356.92V355.162C181.061 355.257 180.877 355.345 180.605 355.428C180.339 355.505 180.034 355.573 179.691 355.632C179.348 355.686 179.013 355.736 178.688 355.783C178.362 355.825 178.09 355.86 177.871 355.89C177.356 355.955 176.885 356.064 176.459 356.218C176.039 356.372 175.702 356.594 175.447 356.884C175.199 357.168 175.074 357.547 175.074 358.021C175.074 358.678 175.317 359.175 175.802 359.512C176.288 359.843 176.906 360.009 177.658 360.009ZM196.403 357.213L196.386 353.972H196.847L202.28 348.202H205.459L199.262 354.771H198.845L196.403 357.213ZM193.962 361.838V343.656H196.616V361.838H193.962ZM202.573 361.838L197.691 355.357L199.519 353.502L205.832 361.838H202.573ZM209.627 362.007C209.142 362.007 208.724 361.835 208.375 361.492C208.026 361.143 207.851 360.722 207.851 360.231C207.851 359.746 208.026 359.332 208.375 358.988C208.724 358.639 209.142 358.464 209.627 358.464C210.112 358.464 210.529 358.639 210.879 358.988C211.228 359.332 211.402 359.746 211.402 360.231C211.402 360.557 211.32 360.856 211.154 361.128C210.994 361.394 210.781 361.607 210.515 361.767C210.248 361.927 209.952 362.007 209.627 362.007Z" fill="black"/>
<path d="M117.339 379.728V378.932L119.8 376.383C120.063 376.106 120.28 375.863 120.45 375.655C120.623 375.444 120.752 375.244 120.837 375.054C120.923 374.865 120.965 374.664 120.965 374.451C120.965 374.209 120.908 374.001 120.795 373.826C120.681 373.648 120.526 373.512 120.33 373.417C120.133 373.32 119.912 373.272 119.665 373.272C119.405 373.272 119.178 373.325 118.984 373.432C118.79 373.538 118.64 373.688 118.536 373.883C118.432 374.077 118.38 374.304 118.38 374.564H117.332C117.332 374.122 117.434 373.735 117.638 373.403C117.841 373.072 118.121 372.815 118.476 372.633C118.831 372.448 119.235 372.356 119.687 372.356C120.144 372.356 120.546 372.447 120.894 372.629C121.245 372.809 121.518 373.055 121.714 373.368C121.911 373.678 122.009 374.028 122.009 374.419C122.009 374.689 121.958 374.953 121.857 375.211C121.757 375.469 121.583 375.756 121.334 376.074C121.086 376.389 120.74 376.771 120.298 377.221L118.852 378.733V378.787H122.126V379.728H117.339ZM126.004 379.849C125.443 379.846 124.964 379.698 124.566 379.405C124.168 379.111 123.864 378.684 123.653 378.123C123.443 377.562 123.337 376.886 123.337 376.095C123.337 375.307 123.443 374.633 123.653 374.074C123.866 373.516 124.172 373.09 124.57 372.796C124.97 372.502 125.448 372.356 126.004 372.356C126.561 372.356 127.038 372.504 127.435 372.8C127.833 373.093 128.137 373.519 128.348 374.078C128.561 374.634 128.668 375.307 128.668 376.095C128.668 376.888 128.562 377.565 128.352 378.126C128.141 378.685 127.837 379.112 127.439 379.408C127.041 379.702 126.563 379.849 126.004 379.849ZM126.004 378.9C126.497 378.9 126.881 378.66 127.158 378.179C127.438 377.699 127.577 377.004 127.577 376.095C127.577 375.491 127.513 374.981 127.386 374.564C127.26 374.145 127.079 373.828 126.842 373.613C126.608 373.395 126.329 373.286 126.004 373.286C125.514 373.286 125.129 373.527 124.85 374.01C124.571 374.493 124.43 375.188 124.428 376.095C124.428 376.701 124.49 377.214 124.616 377.633C124.744 378.049 124.925 378.365 125.159 378.581C125.393 378.794 125.675 378.9 126.004 378.9ZM130.918 377.878L130.911 376.581H131.096L133.269 374.273H134.54L132.062 376.901H131.895L130.918 377.878ZM129.942 379.728V372.455H131.003V379.728H129.942ZM133.386 379.728L131.433 377.135L132.165 376.393L134.689 379.728H133.386ZM139.742 379.849C139.396 379.849 139.084 379.785 138.804 379.657C138.525 379.527 138.304 379.338 138.14 379.092C137.979 378.846 137.899 378.544 137.899 378.187C137.899 377.879 137.958 377.626 138.076 377.427C138.195 377.228 138.354 377.07 138.556 376.954C138.757 376.838 138.982 376.751 139.23 376.692C139.479 376.632 139.732 376.587 139.99 376.557C140.317 376.519 140.582 376.488 140.786 376.464C140.989 376.438 141.137 376.397 141.23 376.34C141.322 376.283 141.368 376.191 141.368 376.063V376.038C141.368 375.728 141.281 375.488 141.105 375.317C140.933 375.147 140.675 375.062 140.331 375.062C139.974 375.062 139.692 375.141 139.486 375.3C139.283 375.456 139.142 375.63 139.064 375.822L138.066 375.594C138.184 375.263 138.357 374.995 138.584 374.792C138.814 374.586 139.078 374.437 139.376 374.344C139.674 374.25 139.988 374.202 140.317 374.202C140.535 374.202 140.766 374.228 141.01 374.28C141.256 374.33 141.485 374.422 141.698 374.557C141.914 374.692 142.09 374.885 142.228 375.136C142.365 375.385 142.434 375.708 142.434 376.106V379.728H141.397V378.982H141.354C141.285 379.119 141.182 379.254 141.045 379.387C140.908 379.519 140.731 379.63 140.516 379.717C140.301 379.805 140.042 379.849 139.742 379.849ZM139.973 378.996C140.266 378.996 140.517 378.938 140.725 378.822C140.936 378.706 141.096 378.555 141.205 378.368C141.316 378.178 141.372 377.976 141.372 377.76V377.057C141.334 377.095 141.261 377.131 141.152 377.164C141.045 377.195 140.923 377.222 140.786 377.246C140.649 377.267 140.515 377.287 140.385 377.306C140.254 377.322 140.145 377.337 140.058 377.349C139.852 377.375 139.664 377.418 139.493 377.48C139.325 377.541 139.19 377.63 139.088 377.746C138.989 377.86 138.939 378.011 138.939 378.201C138.939 378.464 139.036 378.662 139.23 378.797C139.425 378.93 139.672 378.996 139.973 378.996ZM147.935 375.605L146.973 375.775C146.933 375.652 146.869 375.535 146.781 375.424C146.696 375.313 146.58 375.221 146.433 375.15C146.286 375.079 146.103 375.044 145.883 375.044C145.582 375.044 145.331 375.111 145.13 375.246C144.929 375.379 144.828 375.55 144.828 375.761C144.828 375.943 144.895 376.09 145.03 376.202C145.165 376.313 145.383 376.404 145.684 376.475L146.55 376.674C147.052 376.79 147.426 376.969 147.672 377.21C147.919 377.452 148.042 377.765 148.042 378.151C148.042 378.478 147.947 378.769 147.758 379.025C147.571 379.278 147.309 379.477 146.973 379.621C146.639 379.766 146.252 379.838 145.812 379.838C145.201 379.838 144.702 379.708 144.317 379.447C143.931 379.184 143.694 378.812 143.606 378.329L144.633 378.172C144.697 378.44 144.828 378.642 145.027 378.78C145.226 378.915 145.485 378.982 145.804 378.982C146.152 378.982 146.431 378.91 146.639 378.765C146.847 378.619 146.952 378.44 146.952 378.229C146.952 378.059 146.888 377.916 146.76 377.8C146.634 377.684 146.441 377.596 146.181 377.537L145.258 377.334C144.749 377.218 144.372 377.034 144.128 376.78C143.887 376.527 143.766 376.206 143.766 375.818C143.766 375.496 143.856 375.214 144.036 374.973C144.216 374.731 144.465 374.543 144.782 374.408C145.099 374.271 145.462 374.202 145.872 374.202C146.461 374.202 146.925 374.33 147.264 374.586C147.603 374.839 147.826 375.179 147.935 375.605ZM153.296 375.605L152.334 375.775C152.294 375.652 152.23 375.535 152.142 375.424C152.057 375.313 151.941 375.221 151.794 375.15C151.648 375.079 151.464 375.044 151.244 375.044C150.943 375.044 150.692 375.111 150.491 375.246C150.29 375.379 150.189 375.55 150.189 375.761C150.189 375.943 150.257 376.09 150.392 376.202C150.527 376.313 150.744 376.404 151.045 376.475L151.912 376.674C152.413 376.79 152.788 376.969 153.034 377.21C153.28 377.452 153.403 377.765 153.403 378.151C153.403 378.478 153.308 378.769 153.119 379.025C152.932 379.278 152.67 379.477 152.334 379.621C152 379.766 151.613 379.838 151.173 379.838C150.562 379.838 150.064 379.708 149.678 379.447C149.292 379.184 149.055 378.812 148.968 378.329L149.994 378.172C150.058 378.44 150.189 378.642 150.388 378.78C150.587 378.915 150.846 378.982 151.166 378.982C151.514 378.982 151.792 378.91 152 378.765C152.209 378.619 152.313 378.44 152.313 378.229C152.313 378.059 152.249 377.916 152.121 377.8C151.996 377.684 151.803 377.596 151.542 377.537L150.619 377.334C150.11 377.218 149.734 377.034 149.49 376.78C149.248 376.527 149.127 376.206 149.127 375.818C149.127 375.496 149.217 375.214 149.397 374.973C149.577 374.731 149.826 374.543 150.143 374.408C150.46 374.271 150.824 374.202 151.233 374.202C151.823 374.202 152.287 374.33 152.625 374.586C152.964 374.839 153.188 375.179 153.296 375.605ZM156.921 379.838C156.384 379.838 155.921 379.723 155.533 379.493C155.147 379.261 154.849 378.936 154.638 378.517C154.43 378.095 154.325 377.602 154.325 377.036C154.325 376.477 154.43 375.985 154.638 375.559C154.849 375.133 155.142 374.8 155.519 374.561C155.897 374.322 156.34 374.202 156.847 374.202C157.155 374.202 157.453 374.253 157.742 374.355C158.03 374.457 158.29 374.617 158.519 374.834C158.749 375.052 158.93 375.335 159.063 375.683C159.195 376.029 159.262 376.449 159.262 376.944V377.32H154.926V376.525H158.221C158.221 376.245 158.164 375.998 158.051 375.782C157.937 375.565 157.777 375.393 157.571 375.268C157.368 375.142 157.128 375.079 156.854 375.079C156.556 375.079 156.295 375.153 156.073 375.3C155.852 375.444 155.682 375.633 155.561 375.868C155.443 376.1 155.384 376.352 155.384 376.624V377.246C155.384 377.61 155.448 377.92 155.575 378.176C155.706 378.432 155.887 378.627 156.119 378.762C156.351 378.894 156.622 378.961 156.932 378.961C157.133 378.961 157.317 378.932 157.482 378.876C157.648 378.816 157.791 378.729 157.912 378.613C158.033 378.497 158.125 378.353 158.189 378.183L159.194 378.364C159.114 378.66 158.969 378.919 158.761 379.142C158.555 379.362 158.296 379.534 157.983 379.657C157.673 379.777 157.319 379.838 156.921 379.838ZM162.986 374.273V375.126H160.006V374.273H162.986ZM160.805 372.966H161.867V378.126C161.867 378.332 161.898 378.487 161.959 378.591C162.021 378.693 162.1 378.763 162.197 378.801C162.297 378.836 162.405 378.854 162.521 378.854C162.606 378.854 162.68 378.848 162.744 378.836C162.808 378.825 162.858 378.815 162.893 378.808L163.085 379.685C163.024 379.709 162.936 379.733 162.822 379.756C162.709 379.782 162.567 379.796 162.396 379.799C162.117 379.804 161.857 379.754 161.615 379.65C161.374 379.545 161.178 379.385 161.029 379.167C160.88 378.949 160.805 378.675 160.805 378.346V372.966ZM168.16 375.605L167.197 375.775C167.157 375.652 167.093 375.535 167.006 375.424C166.92 375.313 166.804 375.221 166.658 375.15C166.511 375.079 166.327 375.044 166.107 375.044C165.807 375.044 165.556 375.111 165.354 375.246C165.153 375.379 165.053 375.55 165.053 375.761C165.053 375.943 165.12 376.09 165.255 376.202C165.39 376.313 165.608 376.404 165.908 376.475L166.775 376.674C167.277 376.79 167.651 376.969 167.897 377.21C168.143 377.452 168.266 377.765 168.266 378.151C168.266 378.478 168.172 378.769 167.982 379.025C167.795 379.278 167.534 379.477 167.197 379.621C166.864 379.766 166.477 379.838 166.036 379.838C165.425 379.838 164.927 379.708 164.541 379.447C164.155 379.184 163.919 378.812 163.831 378.329L164.857 378.172C164.921 378.44 165.053 378.642 165.251 378.78C165.45 378.915 165.709 378.982 166.029 378.982C166.377 378.982 166.655 378.91 166.864 378.765C167.072 378.619 167.176 378.44 167.176 378.229C167.176 378.059 167.112 377.916 166.984 377.8C166.859 377.684 166.666 377.596 166.406 377.537L165.482 377.334C164.973 377.218 164.597 377.034 164.353 376.78C164.111 376.527 163.991 376.206 163.991 375.818C163.991 375.496 164.081 375.214 164.261 374.973C164.441 374.731 164.689 374.543 165.006 374.408C165.324 374.271 165.687 374.202 166.097 374.202C166.686 374.202 167.15 374.33 167.489 374.586C167.827 374.839 168.051 375.179 168.16 375.605Z" fill="#848486"/>
<circle cx="57.9823" cy="239.913" r="34.4263"/>
<circle cx="198.425" cy="442.412" r="34.4263"/>
<circle cx="458.508" cy="246.788" r="34.4263"/>
<circle cx="299.674" cy="434.246" r="34.4263"/>
<g filter="url(#filter1_d_382_146)">
<rect x="124.018" y="191.208" width="283.706" height="136.876" rx="11" fill="white"/>
<circle cx="189.138" cy="259.646" r="51.7616" stroke="#848486"/>
<circle cx="189.137" cy="259.646" r="46.8695"/>
<path d="M263.145 225.565H266.645V242.065C266.645 243.558 266.35 244.834 265.759 245.895C265.175 246.955 264.353 247.766 263.293 248.327C262.232 248.88 260.99 249.156 259.565 249.156C258.255 249.156 257.077 248.918 256.031 248.44C254.993 247.963 254.172 247.27 253.565 246.361C252.967 245.444 252.668 244.33 252.668 243.02H256.156C256.156 243.664 256.304 244.221 256.6 244.69C256.903 245.16 257.315 245.527 257.838 245.793C258.368 246.05 258.975 246.179 259.656 246.179C260.399 246.179 261.028 246.024 261.543 245.713C262.065 245.395 262.463 244.929 262.736 244.315C263.009 243.702 263.145 242.952 263.145 242.065V225.565ZM278.835 249.19C277.199 249.19 275.771 248.815 274.551 248.065C273.332 247.315 272.385 246.266 271.71 244.918C271.036 243.569 270.699 241.993 270.699 240.19C270.699 238.38 271.036 236.796 271.71 235.44C272.385 234.084 273.332 233.031 274.551 232.281C275.771 231.531 277.199 231.156 278.835 231.156C280.472 231.156 281.9 231.531 283.119 232.281C284.339 233.031 285.286 234.084 285.96 235.44C286.635 236.796 286.972 238.38 286.972 240.19C286.972 241.993 286.635 243.569 285.96 244.918C285.286 246.266 284.339 247.315 283.119 248.065C281.9 248.815 280.472 249.19 278.835 249.19ZM278.847 246.338C279.907 246.338 280.786 246.058 281.483 245.497C282.18 244.936 282.695 244.19 283.029 243.258C283.369 242.327 283.54 241.3 283.54 240.179C283.54 239.065 283.369 238.043 283.029 237.111C282.695 236.171 282.18 235.418 281.483 234.849C280.786 234.281 279.907 233.997 278.847 233.997C277.779 233.997 276.892 234.281 276.188 234.849C275.491 235.418 274.972 236.171 274.631 237.111C274.297 238.043 274.131 239.065 274.131 240.179C274.131 241.3 274.297 242.327 274.631 243.258C274.972 244.19 275.491 244.936 276.188 245.497C276.892 246.058 277.779 246.338 278.847 246.338ZM294.162 238.474V248.838H290.764V225.565H294.117V234.224H294.332C294.742 233.285 295.367 232.539 296.207 231.986C297.048 231.433 298.147 231.156 299.503 231.156C300.7 231.156 301.745 231.402 302.639 231.895C303.541 232.387 304.238 233.122 304.73 234.099C305.23 235.069 305.48 236.281 305.48 237.736V248.838H302.082V238.145C302.082 236.865 301.753 235.872 301.094 235.168C300.435 234.455 299.518 234.099 298.344 234.099C297.541 234.099 296.821 234.27 296.185 234.611C295.556 234.952 295.06 235.452 294.696 236.111C294.34 236.762 294.162 237.55 294.162 238.474ZM313.412 238.474V248.838H310.014V231.383H313.276V234.224H313.492C313.893 233.3 314.522 232.558 315.378 231.997C316.242 231.436 317.329 231.156 318.639 231.156C319.829 231.156 320.87 231.406 321.764 231.906C322.658 232.399 323.351 233.133 323.844 234.111C324.336 235.088 324.582 236.296 324.582 237.736V248.838H321.185V238.145C321.185 236.88 320.855 235.891 320.196 235.179C319.537 234.459 318.632 234.099 317.48 234.099C316.692 234.099 315.992 234.27 315.378 234.611C314.772 234.952 314.291 235.452 313.935 236.111C313.586 236.762 313.412 237.55 313.412 238.474ZM337.881 248.838V225.565H341.392V236.679H341.676L351.438 225.565H355.858L346.472 236.043L355.892 248.838H351.665L344.142 238.44L341.392 241.599V248.838H337.881ZM361.097 249.054C360.475 249.054 359.941 248.834 359.494 248.395C359.047 247.948 358.824 247.41 358.824 246.781C358.824 246.16 359.047 245.63 359.494 245.19C359.941 244.743 360.475 244.52 361.097 244.52C361.718 244.52 362.252 244.743 362.699 245.19C363.146 245.63 363.369 246.16 363.369 246.781C363.369 247.198 363.263 247.58 363.051 247.929C362.847 248.27 362.574 248.543 362.233 248.747C361.892 248.952 361.513 249.054 361.097 249.054Z" fill="black"/>
<path d="M254.6 266.68L257.774 260.402V260.349H254.102V259.408H258.911V260.381L255.747 266.68H254.6ZM260.145 266.68V265.885L262.606 263.335C262.869 263.058 263.086 262.815 263.256 262.607C263.429 262.396 263.558 262.196 263.643 262.007C263.729 261.818 263.771 261.616 263.771 261.403C263.771 261.162 263.714 260.953 263.601 260.778C263.487 260.601 263.332 260.465 263.136 260.37C262.939 260.273 262.718 260.224 262.471 260.224C262.211 260.224 261.984 260.278 261.79 260.384C261.596 260.491 261.446 260.641 261.342 260.835C261.238 261.029 261.186 261.257 261.186 261.517H260.138C260.138 261.074 260.24 260.687 260.444 260.356C260.647 260.024 260.927 259.767 261.282 259.585C261.637 259.4 262.041 259.308 262.493 259.308C262.95 259.308 263.352 259.399 263.7 259.582C264.051 259.762 264.324 260.008 264.52 260.32C264.717 260.63 264.815 260.981 264.815 261.371C264.815 261.641 264.764 261.905 264.663 262.163C264.563 262.421 264.389 262.709 264.141 263.026C263.892 263.341 263.546 263.723 263.104 264.173L261.658 265.686V265.739H264.932V266.68H260.145ZM269.038 259.408V266.68H267.937V260.508H267.894L266.154 261.645V260.594L267.969 259.408H269.038ZM275.253 266.801C274.907 266.801 274.595 266.737 274.315 266.609C274.036 266.479 273.815 266.291 273.651 266.045C273.49 265.798 273.41 265.497 273.41 265.139C273.41 264.831 273.469 264.578 273.587 264.379C273.706 264.18 273.866 264.023 274.067 263.907C274.268 263.791 274.493 263.703 274.742 263.644C274.99 263.585 275.243 263.54 275.501 263.509C275.828 263.471 276.093 263.44 276.297 263.417C276.501 263.391 276.649 263.349 276.741 263.293C276.833 263.236 276.879 263.143 276.879 263.016V262.991C276.879 262.681 276.792 262.44 276.617 262.27C276.444 262.099 276.186 262.014 275.842 262.014C275.485 262.014 275.203 262.093 274.997 262.252C274.794 262.408 274.653 262.582 274.575 262.774L273.577 262.547C273.695 262.215 273.868 261.948 274.095 261.744C274.325 261.538 274.589 261.389 274.887 261.297C275.185 261.202 275.499 261.155 275.828 261.155C276.046 261.155 276.277 261.181 276.521 261.233C276.767 261.283 276.997 261.375 277.21 261.51C277.425 261.645 277.601 261.838 277.739 262.089C277.876 262.337 277.945 262.66 277.945 263.058V266.68H276.908V265.935H276.865C276.796 266.072 276.693 266.207 276.556 266.339C276.419 266.472 276.243 266.582 276.027 266.67C275.812 266.757 275.554 266.801 275.253 266.801ZM275.484 265.949C275.777 265.949 276.028 265.891 276.237 265.775C276.447 265.659 276.607 265.507 276.716 265.32C276.827 265.131 276.883 264.928 276.883 264.713V264.01C276.845 264.048 276.772 264.083 276.663 264.116C276.556 264.147 276.434 264.174 276.297 264.198C276.16 264.219 276.026 264.239 275.896 264.258C275.765 264.275 275.657 264.289 275.569 264.301C275.363 264.327 275.175 264.371 275.004 264.432C274.836 264.494 274.701 264.583 274.6 264.699C274.5 264.812 274.45 264.964 274.45 265.153C274.45 265.416 274.547 265.615 274.742 265.75C274.936 265.882 275.183 265.949 275.484 265.949ZM283.446 262.557L282.484 262.728C282.444 262.605 282.38 262.488 282.292 262.376C282.207 262.265 282.091 262.174 281.944 262.103C281.797 262.032 281.614 261.996 281.394 261.996C281.093 261.996 280.842 262.064 280.641 262.199C280.44 262.331 280.339 262.503 280.339 262.714C280.339 262.896 280.407 263.043 280.541 263.154C280.676 263.265 280.894 263.356 281.195 263.427L282.061 263.626C282.563 263.742 282.937 263.921 283.183 264.163C283.43 264.404 283.553 264.718 283.553 265.104C283.553 265.43 283.458 265.721 283.269 265.977C283.082 266.23 282.82 266.429 282.484 266.574C282.15 266.718 281.763 266.79 281.323 266.79C280.712 266.79 280.214 266.66 279.828 266.4C279.442 266.137 279.205 265.764 279.117 265.281L280.144 265.125C280.208 265.392 280.339 265.595 280.538 265.732C280.737 265.867 280.996 265.935 281.316 265.935C281.664 265.935 281.942 265.862 282.15 265.718C282.358 265.571 282.463 265.392 282.463 265.182C282.463 265.011 282.399 264.868 282.271 264.752C282.145 264.636 281.952 264.548 281.692 264.489L280.769 264.287C280.26 264.171 279.883 263.986 279.639 263.733C279.398 263.48 279.277 263.159 279.277 262.77C279.277 262.449 279.367 262.167 279.547 261.925C279.727 261.684 279.976 261.496 280.293 261.361C280.61 261.223 280.974 261.155 281.383 261.155C281.973 261.155 282.437 261.283 282.775 261.538C283.114 261.792 283.337 262.131 283.446 262.557ZM288.808 262.557L287.845 262.728C287.805 262.605 287.741 262.488 287.653 262.376C287.568 262.265 287.452 262.174 287.305 262.103C287.159 262.032 286.975 261.996 286.755 261.996C286.454 261.996 286.203 262.064 286.002 262.199C285.801 262.331 285.7 262.503 285.7 262.714C285.7 262.896 285.768 263.043 285.903 263.154C286.038 263.265 286.256 263.356 286.556 263.427L287.423 263.626C287.925 263.742 288.299 263.921 288.545 264.163C288.791 264.404 288.914 264.718 288.914 265.104C288.914 265.43 288.819 265.721 288.63 265.977C288.443 266.23 288.181 266.429 287.845 266.574C287.511 266.718 287.124 266.79 286.684 266.79C286.073 266.79 285.575 266.66 285.189 266.4C284.803 266.137 284.566 265.764 284.479 265.281L285.505 265.125C285.569 265.392 285.7 265.595 285.899 265.732C286.098 265.867 286.357 265.935 286.677 265.935C287.025 265.935 287.303 265.862 287.511 265.718C287.72 265.571 287.824 265.392 287.824 265.182C287.824 265.011 287.76 264.868 287.632 264.752C287.507 264.636 287.314 264.548 287.053 264.489L286.13 264.287C285.621 264.171 285.245 263.986 285.001 263.733C284.759 263.48 284.639 263.159 284.639 262.77C284.639 262.449 284.729 262.167 284.908 261.925C285.088 261.684 285.337 261.496 285.654 261.361C285.971 261.223 286.335 261.155 286.744 261.155C287.334 261.155 287.798 261.283 288.136 261.538C288.475 261.792 288.699 262.131 288.808 262.557ZM292.432 266.79C291.895 266.79 291.432 266.676 291.044 266.446C290.658 266.214 290.36 265.888 290.149 265.469C289.941 265.048 289.837 264.554 289.837 263.989C289.837 263.43 289.941 262.937 290.149 262.511C290.36 262.085 290.653 261.753 291.03 261.513C291.409 261.274 291.851 261.155 292.358 261.155C292.666 261.155 292.964 261.206 293.253 261.307C293.542 261.409 293.801 261.569 294.03 261.787C294.26 262.005 294.441 262.288 294.574 262.636C294.706 262.981 294.773 263.401 294.773 263.896V264.273H290.437V263.477H293.732C293.732 263.198 293.675 262.95 293.562 262.735C293.448 262.517 293.288 262.346 293.082 262.22C292.879 262.095 292.64 262.032 292.365 262.032C292.067 262.032 291.806 262.105 291.584 262.252C291.364 262.396 291.193 262.586 291.072 262.82C290.954 263.052 290.895 263.304 290.895 263.577V264.198C290.895 264.563 290.959 264.873 291.087 265.128C291.217 265.384 291.398 265.579 291.63 265.714C291.862 265.847 292.133 265.913 292.443 265.913C292.644 265.913 292.828 265.885 292.994 265.828C293.159 265.769 293.302 265.681 293.423 265.565C293.544 265.449 293.636 265.306 293.7 265.136L294.705 265.317C294.625 265.613 294.48 265.872 294.272 266.094C294.066 266.315 293.807 266.486 293.494 266.609C293.184 266.73 292.83 266.79 292.432 266.79ZM298.497 261.226V262.078H295.517V261.226H298.497ZM296.316 259.919H297.378V265.079C297.378 265.285 297.409 265.44 297.471 265.544C297.532 265.646 297.611 265.716 297.709 265.753C297.808 265.789 297.916 265.807 298.032 265.807C298.117 265.807 298.191 265.801 298.255 265.789C298.319 265.777 298.369 265.768 298.405 265.761L298.596 266.638C298.535 266.661 298.447 266.685 298.334 266.709C298.22 266.735 298.078 266.749 297.907 266.751C297.628 266.756 297.368 266.706 297.126 266.602C296.885 266.498 296.689 266.337 296.54 266.119C296.391 265.901 296.316 265.628 296.316 265.299V259.919ZM303.671 262.557L302.709 262.728C302.668 262.605 302.604 262.488 302.517 262.376C302.432 262.265 302.316 262.174 302.169 262.103C302.022 262.032 301.839 261.996 301.618 261.996C301.318 261.996 301.067 262.064 300.865 262.199C300.664 262.331 300.564 262.503 300.564 262.714C300.564 262.896 300.631 263.043 300.766 263.154C300.901 263.265 301.119 263.356 301.419 263.427L302.286 263.626C302.788 263.742 303.162 263.921 303.408 264.163C303.654 264.404 303.777 264.718 303.777 265.104C303.777 265.43 303.683 265.721 303.493 265.977C303.306 266.23 303.045 266.429 302.709 266.574C302.375 266.718 301.988 266.79 301.547 266.79C300.937 266.79 300.438 266.66 300.052 266.4C299.666 266.137 299.43 265.764 299.342 265.281L300.368 265.125C300.432 265.392 300.564 265.595 300.763 265.732C300.961 265.867 301.221 265.935 301.54 265.935C301.888 265.935 302.166 265.862 302.375 265.718C302.583 265.571 302.687 265.392 302.687 265.182C302.687 265.011 302.623 264.868 302.495 264.752C302.37 264.636 302.177 264.548 301.917 264.489L300.993 264.287C300.484 264.171 300.108 263.986 299.864 263.733C299.623 263.48 299.502 263.159 299.502 262.77C299.502 262.449 299.592 262.167 299.772 261.925C299.952 261.684 300.2 261.496 300.517 261.361C300.835 261.223 301.198 261.155 301.608 261.155C302.197 261.155 302.661 261.283 303 261.538C303.338 261.792 303.562 262.131 303.671 262.557Z" fill="#848486"/>
</g>
<rect x="325.67" y="306.736" width="122.773" height="92.9095" rx="5"/>
<defs>
<filter id="filter0_f_382_146" x="25.1467" y="0.146606" width="541.692" height="538.91" filterUnits="userSpaceOnUse" color-interpolation-filters="sRGB">
<feFlood flood-opacity="0" result="BackgroundImageFix"/>
<feBlend mode="normal" in="SourceGraphic" in2="BackgroundImageFix" result="shape"/>
<feGaussianBlur stdDeviation="75" result="effect1_foregroundBlur_382_146"/>
</filter>
<filter id="filter1_d_382_146" x="88.6177" y="159.808" width="354.506" height="207.676" filterUnits="userSpaceOnUse" color-interpolation-filters="sRGB">
<feFlood flood-opacity="0" result="BackgroundImageFix"/>
<feColorMatrix in="SourceAlpha" type="matrix" values="0 0 0 0 0 0 0 0 0 0 0 0 0 0 0 0 0 0 127 0" result="hardAlpha"/>
<feOffset dy="4"/>
<feGaussianBlur stdDeviation="17.7"/>
<feComposite in2="hardAlpha" operator="out"/>
<feColorMatrix type="matrix" values="0 0 0 0 0 0 0 0 0 0 0 0 0 0 0 0 0 0 0.25 0"/>
<feBlend mode="normal" in2="BackgroundImageFix" result="effect1_dropShadow_382_146"/>
<feBlend mode="normal" in="SourceGraphic" in2="effect1_dropShadow_382_146" result="shape"/>
</filter>
</defs>
</svg>
